<svg width="118" height="101" viewBox="0 0 118 101" fill="none" xmlns="http://www.w3.org/2000/svg">
<path d="M89.8844 0.5V4.81" stroke="#4A5059" stroke-linecap="round" stroke-linejoin="round"/>
<path d="M87.7345 2.66003H92.0345" stroke="#4A5059" stroke-linecap="round" stroke-linejoin="round"/>
<path d="M25.8044 1.88V6.18001" stroke="#4A5059" stroke-linecap="round" stroke-linejoin="round"/>
<path d="M23.6544 4.03003H27.9544" stroke="#4A5059" stroke-linecap="round" stroke-linejoin="round"/>
<path d="M62.1744 82.67V86.98" stroke="#4A5059" stroke-linecap="round" stroke-linejoin="round"/>
<path d="M60.0244 84.82H64.3244" stroke="#4A5059" stroke-linecap="round" stroke-linejoin="round"/>
<path d="M58.3145 6.02C58.8557 6.02 59.2945 5.58124 59.2945 5.04C59.2945 4.49876 58.8557 4.06 58.3145 4.06C57.7732 4.06 57.3345 4.49876 57.3345 5.04C57.3345 5.58124 57.7732 6.02 58.3145 6.02Z" fill="#4A5059"/>
<path d="M98.6444 18.04C99.1857 18.04 99.6244 17.6013 99.6244 17.06C99.6244 16.5188 99.1857 16.08 98.6444 16.08C98.1032 16.08 97.6644 16.5188 97.6644 17.06C97.6644 17.6013 98.1032 18.04 98.6444 18.04Z" fill="#4A5059"/>
<path d="M24.7444 80.1C25.2856 80.1 25.7244 79.6613 25.7244 79.12C25.7244 78.5788 25.2856 78.14 24.7444 78.14C24.2032 78.14 23.7644 78.5788 23.7644 79.12C23.7644 79.6613 24.2032 80.1 24.7444 80.1Z" fill="#4A5059"/>
<path d="M79.4545 32.39C71.0845 32.39 62.5645 32.06 54.5945 29.84C46.6245 27.62 39.5945 23.46 33.1945 18.59C29.0045 15.41 25.1945 12.89 19.7445 13.27C14.426 13.5601 9.34059 15.5473 5.2345 18.94C-1.6955 25 -0.645498 36.21 2.1245 44.09C6.2845 55.96 18.9445 64.21 29.7045 69.58C42.1345 75.79 55.7845 79.4 69.4845 81.47C81.4845 83.3 96.9045 84.62 107.305 76.78C116.855 69.58 119.475 53.14 117.135 42.04C116.569 38.7599 114.823 35.8002 112.225 33.72C105.515 28.81 95.5045 32.09 87.9645 32.25C85.1645 32.31 82.3145 32.38 79.4545 32.39Z" fill="#272933"/>
<path d="M58.9744 100.93C79.2488 100.93 95.6844 99.9047 95.6844 98.64C95.6844 97.3753 79.2488 96.35 58.9744 96.35C38.7 96.35 22.2644 97.3753 22.2644 98.64C22.2644 99.9047 38.7 100.93 58.9744 100.93Z" fill="#272933"/>
<path d="M26.1745 26.06C25.1045 25.16 20.5245 21.13 18.7845 19.82C25.4145 16.03 31.4845 16.28 34.1545 17.82C35.9445 18.82 36.6445 18.82 38.4445 17.99C52.9945 11.34 67.6945 10.28 82.1545 17.99C96.6145 25.7 100.744 41.48 92.2245 55.64C91.6535 56.6724 91.4759 57.8767 91.7245 59.03C92.9545 63.65 94.3645 68.22 95.8245 72.78C96.5445 74.99 95.8245 76.19 93.6345 76.61C93.4581 76.6302 93.284 76.6671 93.1145 76.72C86.6845 79.44 81.3445 78.17 77.2145 72.41C76.3994 71.1859 75.6774 69.9023 75.0545 68.57C69.7445 73.03 56.3445 74.1 56.3445 74.1C56.3038 75.2001 56.1868 76.2961 55.9945 77.38C54.7045 84.07 50.2445 86.6 43.8545 87.14C40.1545 87.46 39.7645 87.53 39.2545 83.75C38.8545 80.85 38.6045 77.93 38.0845 75.05C37.9783 74.5897 37.7765 74.1569 37.4923 73.7796C37.208 73.4023 36.8476 73.089 36.4345 72.86C31.6741 70.8984 27.3149 68.0782 23.5745 64.54C22.4745 63.54 20.3945 63.32 18.7145 63.09C12.1345 62.19 13.2745 63.09 11.9045 56.89C11.1945 53.68 10.3845 50.49 9.96449 47.24C9.83449 46.24 10.5345 44.43 11.3445 44.06C13.6698 43.0267 15.7388 41.4937 17.4045 39.57C18.2268 38.5998 18.9472 37.5476 19.5545 36.43C20.5545 34.69 21.1945 32.74 22.3345 31.07C23.4745 29.4 24.9545 27.78 26.1745 26.06Z" fill="#2D333E" stroke="#4A5059" stroke-miterlimit="10"/>
<path d="M95.4445 32.13C95.4445 32.13 101.994 33.36 104.274 30.28C106.774 26.87 104.054 24.22 102.664 23.99C99.9245 23.54 98.1645 26.17 99.4945 28.11" stroke="#4A5059" stroke-linecap="round" stroke-linejoin="round"/>
<path d="M45.3944 19.64C45.9444 19.7 63.2244 15.89 63.2244 15.89L45.3944 19.64Z" fill="#2D333E"/>
<path d="M45.3944 19.64C45.9444 19.7 63.2244 15.89 63.2244 15.89" stroke="#4A5059" stroke-miterlimit="10"/>
<path d="M24.2045 40.26L20.3545 41.07L23.9945 43.44" fill="#2D333E"/>
<path d="M24.2045 40.26L20.3545 41.07L23.9945 43.44" stroke="#4A5059" stroke-miterlimit="10"/>
<path d="M11.5945 55.8C11.5945 55.8 18.2545 54.16 21.4145 56.8" stroke="#4A5059" stroke-linecap="round" stroke-linejoin="round"/>
<path d="M25.3944 25.39L30.2944 29.53" stroke="#4A5059" stroke-miterlimit="10"/>
<path d="M32.3145 17.07C32.8345 17.24 37.2445 17.72 38.3745 23.4L32.3145 17.07Z" fill="#2D333E"/>
<path d="M32.3145 17.07C32.8345 17.24 37.2445 17.72 38.3745 23.4" stroke="#4A5059" stroke-miterlimit="10"/>
</svg>
